<?xml version="1.0" encoding="iso-8859-1"?>
<!-- Generator: Adobe Illustrator 19.0.0, SVG Export Plug-In . SVG Version: 6.00 Build 0)  -->
<svg version="1.1" id="Capa_1" xmlns="http://www.w3.org/2000/svg" xmlns:xlink="http://www.w3.org/1999/xlink" x="0px" y="0px"
	 viewBox="0 0 511.999 511.999" style="enable-background:new 0 0 511.999 511.999;" xml:space="preserve">
<path style="fill:#D3D3D8;" d="M263.8,221.202c0,0-11.4,9.899-22.8,19.799c-10.8,9.3-21.301,18.6-22.8,19.799
	c-5.7,5.7-15.3,5.7-21.299,0c0,0-79.801-80.099-82.8-83.098c0-0.3-57.301-19.2-60.3-20.101c-3.9-1.5-6.899-4.199-8.701-7.5
	c-3.3-6.299-41.499-82.299-43.599-85.898c-2.699-6-1.8-12.9,3.001-17.401l20.999-21.301L46.802,4.504
	c4.501-4.801,11.1-5.7,17.1-3.001c0,0,82,41.501,86.198,43.599c3.602,1.802,6,4.501,7.5,8.401c0,0.3,18.9,57.299,20.101,60.601
	c0,0,82.8,82.8,86.1,86.1C269.501,205.903,269.501,215.503,263.8,221.202z"/>
<path style="fill:#BABAC0;" d="M25.501,25.503l215.5,215.5c-10.8,9.3-21.301,18.6-22.8,19.799c-5.7,5.7-15.3,5.7-21.299,0
	c0,0-79.801-80.099-82.8-83.098c0-0.3-57.301-19.2-60.3-20.101c-3.9-1.5-6.899-4.199-8.701-7.5
	c-3.3-6.299-41.499-82.299-43.599-85.898c-2.699-6-1.8-12.9,3.001-17.401L25.501,25.503z"/>
<path style="fill:#5A5A5A;" d="M357.4,260.801l-5.4,47.401l-17.401,26.4l-22.8,33.9l-49.2,6.301l-31.5-38.701
	c-5.4-6.299-4.199-15.899,2.1-21l37.8-44.099l28.5-32.999c4.799-6.601,14.099-8.101,21-3.6L357.4,260.801z"/>
<path style="fill:#444444;" d="M334.6,334.601l-22.8,33.9l-49.2,6.301l-31.5-38.701c-5.4-6.299-4.199-15.899,2.1-21l37.8-44.099
	L334.6,334.601z"/>
<path style="fill:#FF3636;" d="M484.799,484.8c-40.201,39.901-106.198,35.4-140.399-10.201l-81.801-99.797l51-61.201l43.801-52.8
	l116.9,83.301C520.199,378.602,524.7,444.6,484.799,484.8z"/>
<path style="fill:#E10000;" d="M484.799,484.8c-40.201,39.901-106.198,35.4-140.399-10.201l-81.801-99.797l51-61.201L484.799,484.8z
	"/>
<path style="fill:#E7E7E7;" d="M490.175,64.503c-6-6-15.3-6-21.301,0l-42.299,42.299c-6,6-15.601,6-21.301,0c-6-5.7-6-15.3,0-21.301
	l42.299-42.299c6-6,6-15.3,0-21.301c-29.099-29.099-76.8-29.099-105.898,0l-48.3,48.301c-8.401,8.399-13.2,19.799-13.2,31.8v58.499
	c0,4.501-1.8,8.701-5.4,11.4L26.915,385.5c-30.899,26.1-36,71.1-11.1,100.5c1.5,1.8,4.26,3.3,5.461,4.799
	c29.099,29.101,76.8,27.001,103.199-4.2l215.699-249.597c2.699-3.301,6.899-5.101,11.4-5.101h58.499
	c12.001,0,23.401-4.799,31.8-13.2l48.301-48.3C519.274,141.303,519.274,93.602,490.175,64.503z"/>
<path style="fill:#D3D3D8;" d="M490.175,170.402l-48.301,48.3c-8.399,8.401-19.799,13.2-31.8,13.2h-58.499
	c-4.501,0-8.701,1.8-11.4,5.101L124.477,486.599c-26.4,31.201-74.101,33.301-103.199,4.2l383.998-383.998c5.7,6,15.3,6,21.301,0
	l42.299-42.299c6-6,15.3-6,21.301,0C519.274,93.602,519.274,141.303,490.175,170.402z"/>
<path style="fill:#6E6E6E;" d="M84.876,448.501c-5.7,5.7-15.3,5.7-21.301,0c-5.7-6-5.7-15.601,0-21.301c6-6,15.601-6,21.301,0
	C90.877,432.9,90.877,442.501,84.876,448.501z"/>
<path style="fill:#5A5A5A;" d="M84.876,448.501c-5.7,5.7-15.3,5.7-21.301,0L84.876,427.2
	C90.877,432.9,90.877,442.501,84.876,448.501z"/>
<g>
</g>
<g>
</g>
<g>
</g>
<g>
</g>
<g>
</g>
<g>
</g>
<g>
</g>
<g>
</g>
<g>
</g>
<g>
</g>
<g>
</g>
<g>
</g>
<g>
</g>
<g>
</g>
<g>
</g>
</svg>
