<?xml version="1.0" encoding="iso-8859-1"?>
<!-- Generator: Adobe Illustrator 19.0.0, SVG Export Plug-In . SVG Version: 6.00 Build 0)  -->
<svg version="1.1" id="Layer_1" xmlns="http://www.w3.org/2000/svg" xmlns:xlink="http://www.w3.org/1999/xlink" x="0px" y="0px"
	 viewBox="0 0 512 512" style="enable-background:new 0 0 512 512;" xml:space="preserve">
<g transform="translate(1 1)">
	<path style="fill:#FFDD09;" d="M203.8,408.6v33.28c0,10.24,8.533,17.92,17.92,17.92h65.707c10.24,0,17.92-8.533,17.92-17.92V408.6
		c46.933,0,85.333-38.4,85.333-85.333v-76.8V152.6H118.467v93.867v76.8C118.467,370.2,156.867,408.6,203.8,408.6L203.8,408.6z"/>
	<path style="fill:#FFFFFF;" d="M203.8,408.6c-46.933,0-85.333-38.4-85.333-85.333v-76.8V152.6h25.6v93.867v76.8
		C144.067,370.2,156.867,408.6,203.8,408.6"/>
	<path style="fill:#FD9808;" d="M306.2,408.6c46.933,0,85.333-38.4,85.333-85.333v-76.8V152.6h-25.6v93.867v76.8
		C365.933,370.2,353.133,408.6,306.2,408.6"/>
	<g>
		<path style="fill:#FFDD09;" d="M186.733,118.467H152.6V24.6c0-9.387,7.68-17.067,17.067-17.067c9.387,0,17.067,7.68,17.067,17.067
			V118.467z"/>
		<path style="fill:#FFDD09;" d="M323.267,118.467H357.4V24.6c0-9.387-7.68-17.067-17.067-17.067
			c-9.387,0-17.067,7.68-17.067,17.067V118.467z"/>
		<path style="fill:#FFDD09;" d="M368.493,152.6H141.507c-7.68,0-14.507-7.68-14.507-17.067s5.973-17.067,14.507-17.067h227.84
			c7.68,0,14.507,7.68,14.507,17.067S377.027,152.6,368.493,152.6"/>
	</g>
	<path style="fill:#FD9808;" d="M391.533,118.467h-23.04c7.68,0,14.507,7.68,14.507,17.067s-5.973,17.067-14.507,17.067h23.04
		c9.387,0,17.067-7.68,17.067-17.067S400.92,118.467,391.533,118.467"/>
	<path style="fill:#FFFFFF;" d="M118.467,118.467h23.04c-7.68,0-14.507,7.68-14.507,17.067s5.973,17.067,14.507,17.067h-23.04
		c-9.387,0-17.067-7.68-17.067-17.067S109.08,118.467,118.467,118.467"/>
	<path style="fill:#FFDD09;" d="M263.533,511c-5.12,0-8.533-3.413-8.533-8.533V459.8c0-5.12,3.413-8.533,8.533-8.533
		c5.12,0,8.533,3.413,8.533,8.533v42.667C272.067,507.587,268.653,511,263.533,511z"/>
	<path d="M288.28,468.333h-65.707c-14.507,0-26.453-11.947-26.453-26.453v-24.747c-48.64-4.267-86.187-45.227-86.187-93.867V152.6
		c0-5.12,3.413-8.533,8.533-8.533h273.067c5.12,0,8.533,3.413,8.533,8.533v170.667c0,48.64-37.547,88.747-85.333,93.867v24.747
		C314.733,456.387,302.787,468.333,288.28,468.333z M127,161.133v162.133c0,42.667,34.133,76.8,76.8,76.8
		c5.12,0,8.533,3.413,8.533,8.533v33.28c0,5.12,4.267,9.387,9.387,9.387h65.707c5.12,0,9.387-4.267,9.387-9.387V408.6
		c0-5.12,3.413-8.533,8.533-8.533c42.667,0,76.8-34.133,76.8-76.8V161.133H127z"/>
	<path d="M255,511c-5.12,0-8.533-3.413-8.533-8.533V459.8c0-5.12,3.413-8.533,8.533-8.533s8.533,3.413,8.533,8.533v42.667
		C263.533,507.587,260.12,511,255,511z"/>
	<path d="M186.733,127H152.6c-5.12,0-8.533-3.413-8.533-8.533V24.6c0-14.507,11.093-25.6,25.6-25.6s25.6,11.093,25.6,25.6v93.867
		C195.267,123.587,191.853,127,186.733,127z M161.133,109.933H178.2V24.6c0-5.12-3.413-8.533-8.533-8.533
		c-5.12,0-8.533,4.267-8.533,8.533V109.933z"/>
	<path d="M357.4,127h-34.133c-5.12,0-8.533-3.413-8.533-8.533V24.6c0-14.507,11.093-25.6,25.6-25.6c14.507,0,25.6,11.093,25.6,25.6
		v93.867C365.933,123.587,362.52,127,357.4,127z M331.8,109.933h17.067V24.6c0-5.12-3.413-8.533-8.533-8.533
		c-5.12,0-8.533,3.413-8.533,8.533V109.933z"/>
	<path d="M391.533,161.133H118.467c-14.507,0-25.6-11.093-25.6-25.6s11.093-25.6,25.6-25.6h273.067c14.507,0,25.6,11.093,25.6,25.6
		S406.04,161.133,391.533,161.133z M118.467,127c-5.12,0-8.533,3.413-8.533,8.533s3.413,8.533,8.533,8.533h273.067
		c5.12,0,8.533-3.413,8.533-8.533S396.653,127,391.533,127H118.467z"/>
	<path d="M229.4,340.333c-2.56,0-4.267-0.853-5.973-2.56c-3.413-3.413-3.413-8.533,0-11.947l45.227-45.227h-47.787
		c-3.413,0-6.827-1.707-7.68-5.12c-0.853-3.413-0.853-6.827,1.707-9.387l59.733-59.733c3.413-3.413,8.533-3.413,11.947,0
		s3.413,8.533,0,11.947l-45.227,45.227h47.787c3.413,0,6.827,1.707,7.68,5.12c1.707,3.413,0.853,6.827-1.707,9.387l-59.733,59.733
		C233.667,339.48,231.96,340.333,229.4,340.333z"/>
</g>
<g>
</g>
<g>
</g>
<g>
</g>
<g>
</g>
<g>
</g>
<g>
</g>
<g>
</g>
<g>
</g>
<g>
</g>
<g>
</g>
<g>
</g>
<g>
</g>
<g>
</g>
<g>
</g>
<g>
</g>
</svg>
